<svg xmlns="http://www.w3.org/2000/svg" width="449.43" height="220.416"><path fill="#f0ad00" d="M286.768 64.655H197.67l44.548 44.549z"/><path fill="#7fd13b" d="M287.213 56.658L242.34 11.785H144.8l44.873 44.873zm9.429 9.429l48.548 48.548-48.77 48.769-48.547-48.548z"/><path fill="#60b5cc" d="M362.162 104.983l14.493-90.49L286.165 0z"/><path fill="#5a6378" d="M192.102 85.314L64.757 32.743l74.775 179.917z"/><path fill="#f0ad00" d="M302.063 169.074l43.23 43.203-.028-86.433z"/><path fill="#60b5cc" d="M144.802 217.93h194.836l-97.419-97.418z"/><g fill="#60b5cc"><path d="M37.592 96.58c7.476 1.305 14.62-3.698 15.926-11.196 1.307-7.49-3.706-14.62-11.196-15.926-7.49-1.306-14.62 3.707-15.926 11.197-1.306 7.49 3.707 14.62 11.196 15.926z"/><path d="M81.5 72.999c-2.077-.065-3.152.84-4.366 2.575L63.859 94.532l-18.997 8.68s-19.446-3.614-21.131-3.665c-1.732-.051-3.524.17-4.96 1.366-17.276 70.222-2.493-2.839-18.71 111.306a7.265 7.265 0 0014.41 1.863l7.412-57.324 1.672.292 19.826 20.897-4.993 34.152a7.264 7.264 0 006.138 8.239 7.264 7.264 0 008.239-6.137l5.504-37.643a7.265 7.265 0 00-1.919-6.051L42.654 156.07l7.226-41.437 20.69-9.458a6.302 6.302 0 002.535-2.098L86.131 84.22c-.467-1.785-4.03-9.904-4.632-11.221z"/></g><path d="M411.837 93.658c-7.475 1.304-14.618-3.699-15.926-11.197-1.306-7.49 3.707-14.62 11.197-15.926 7.49-1.306 14.62 3.707 15.926 11.197 1.306 7.49-3.707 14.62-11.197 15.926z" fill="#5a6378"/><path d="M367.727 70.013c2.077-.065 3.355.904 4.569 2.638l13.275 18.958 18.997 8.68s19.445-3.614 21.131-3.665c1.731-.051 3.524.17 4.959 1.366 17.277 70.222 2.494-2.839 18.71 111.306a7.265 7.265 0 01-14.409 1.863l-7.412-57.324-1.672.292-19.826 20.897 4.993 34.152a7.264 7.264 0 01-6.138 8.239 7.264 7.264 0 01-8.24-6.137l-5.503-37.643a7.265 7.265 0 011.918-6.051l13.697-14.437-7.226-41.437-20.69-9.458a6.301 6.301 0 01-2.535-2.098L365.689 82.86c.326-1.941 1.796-11.388 2.038-12.847z" fill="#5a6378"/><ellipse ry="5.649" rx="2.568" cy="268.962" cx="321.031" transform="matrix(.87381 -.48626 .52178 .85308 0 0)" fill="#5a6378"/><path d="M419.098 73.373c9.457-18.827 11.458-4.066 12.518-.795 1.68 5.215 4.73 5.966 4.73 5.966s-1.46 1.768-4.11-.442c-2.653-2.21-4.231-4.457-4.762-6.578-.53-2.121-4.757 4.889-4.757 4.889z" fill="#5a6378" stroke="#5a6378"/></svg>